<?xml version="1.0" standalone="no"?>
<!DOCTYPE svg PUBLIC "-//W3C//DTD SVG 20010904//EN"
 "http://www.w3.org/TR/2001/REC-SVG-20010904/DTD/svg10.dtd">
<svg version="1.0" xmlns="http://www.w3.org/2000/svg"
 width="640.000000pt" height="1280.000000pt" viewBox="0 0 640.000000 1280.000000"
 preserveAspectRatio="xMidYMid meet">
<metadata>
Created by potrace 1.15, written by Peter Selinger 2001-2017
</metadata>
<g transform="translate(0.000000,1280.000000) scale(0.100000,-0.100000)"
fill="#000000" stroke="none">
<path d="M3042 12790 c-296 -42 -555 -181 -802 -429 -386 -389 -613 -947 -660
-1622 -19 -267 9 -658 66 -939 98 -477 289 -854 570 -1119 109 -103 219 -176
389 -257 239 -113 295 -194 295 -428 0 -61 -7 -280 -15 -486 -8 -206 -24 -616
-35 -910 -11 -294 -29 -771 -40 -1060 -11 -289 -29 -757 -40 -1040 -11 -283
-24 -639 -30 -790 -6 -151 -17 -450 -25 -665 -8 -214 -24 -628 -35 -920 -11
-291 -27 -708 -36 -925 -23 -586 -23 -722 -1 -795 42 -133 112 -230 220 -303
110 -73 195 -97 342 -96 102 1 131 4 192 26 170 60 284 168 342 323 42 111 43
152 21 738 -21 587 -48 1324 -80 2222 -11 303 -24 672 -30 820 -5 149 -17 458
-25 688 -8 229 -22 605 -30 835 -8 229 -20 541 -25 692 -6 151 -15 397 -20
545 -5 149 -17 461 -26 695 -8 234 -13 451 -9 484 10 92 40 160 102 226 45 49
77 70 186 126 173 87 278 158 381 255 326 309 535 776 610 1364 92 720 -24
1404 -326 1915 -98 166 -179 271 -313 406 -223 224 -447 352 -717 410 -87 18
-308 26 -396 14z"/>
</g>
</svg>
